<mxfile host="Electron" modified="2023-05-22T20:44:53.376Z" agent="Mozilla/5.0 (Windows NT 10.0; Win64; x64) AppleWebKit/537.36 (KHTML, like Gecko) draw.io/21.1.2 Chrome/106.0.5249.199 Electron/21.4.3 Safari/537.36" etag="W5uWOpTASZ03mh8qbsZX" version="21.1.2" type="device">
  <diagram id="C5RBs43oDa-KdzZeNtuy" name="Page-1">
    <mxGraphModel dx="1628" dy="2277" grid="1" gridSize="10" guides="1" tooltips="1" connect="1" arrows="1" fold="1" page="1" pageScale="1" pageWidth="827" pageHeight="1169" math="0" shadow="0">
      <root>
        <mxCell id="WIyWlLk6GJQsqaUBKTNV-0" />
        <mxCell id="WIyWlLk6GJQsqaUBKTNV-1" parent="WIyWlLk6GJQsqaUBKTNV-0" />
        <mxCell id="zkfFHV4jXpPFQw0GAbJ--0" value="WebConnection" style="swimlane;fontStyle=2;align=center;verticalAlign=top;childLayout=stackLayout;horizontal=1;startSize=26;horizontalStack=0;resizeParent=1;resizeLast=0;collapsible=1;marginBottom=0;rounded=0;shadow=0;strokeWidth=1;fillColor=#dae8fc;strokeColor=#6c8ebf;" parent="WIyWlLk6GJQsqaUBKTNV-1" vertex="1">
          <mxGeometry x="220" y="120" width="260" height="180" as="geometry">
            <mxRectangle x="230" y="140" width="160" height="26" as="alternateBounds" />
          </mxGeometry>
        </mxCell>
        <mxCell id="zkfFHV4jXpPFQw0GAbJ--1" value="+ site: str&#xa;+ bs_parser: str&#xa;+ encoding: str" style="text;align=left;verticalAlign=top;spacingLeft=4;spacingRight=4;overflow=hidden;rotatable=0;points=[[0,0.5],[1,0.5]];portConstraint=eastwest;fontStyle=2" parent="zkfFHV4jXpPFQw0GAbJ--0" vertex="1">
          <mxGeometry y="26" width="260" height="54" as="geometry" />
        </mxCell>
        <mxCell id="zkfFHV4jXpPFQw0GAbJ--4" value="" style="line;html=1;strokeWidth=1;align=left;verticalAlign=middle;spacingTop=-1;spacingLeft=3;spacingRight=3;rotatable=0;labelPosition=right;points=[];portConstraint=eastwest;" parent="zkfFHV4jXpPFQw0GAbJ--0" vertex="1">
          <mxGeometry y="80" width="260" height="8" as="geometry" />
        </mxCell>
        <mxCell id="mIpQJgT3JSUR18SO07oH-0" value="+ get_page_bs(url: str): BeatifulSoup or bool&#xa;+ _get_page_bs(url: str): BeatifulSoup" style="text;align=left;verticalAlign=top;spacingLeft=4;spacingRight=4;overflow=hidden;rotatable=0;points=[[0,0.5],[1,0.5]];portConstraint=eastwest;fontStyle=0" parent="zkfFHV4jXpPFQw0GAbJ--0" vertex="1">
          <mxGeometry y="88" width="260" height="40" as="geometry" />
        </mxCell>
        <mxCell id="zkfFHV4jXpPFQw0GAbJ--5" value="+ get_page_status(url: str): int&#xa;+ get_page_text(url: str): str" style="text;align=left;verticalAlign=top;spacingLeft=4;spacingRight=4;overflow=hidden;rotatable=0;points=[[0,0.5],[1,0.5]];portConstraint=eastwest;fontStyle=2" parent="zkfFHV4jXpPFQw0GAbJ--0" vertex="1">
          <mxGeometry y="128" width="260" height="52" as="geometry" />
        </mxCell>
        <mxCell id="zkfFHV4jXpPFQw0GAbJ--12" value="" style="endArrow=block;endSize=10;endFill=0;shadow=0;strokeWidth=1;rounded=0;edgeStyle=elbowEdgeStyle;elbow=vertical;fillColor=#dae8fc;strokeColor=#6c8ebf;" parent="WIyWlLk6GJQsqaUBKTNV-1" target="zkfFHV4jXpPFQw0GAbJ--0" edge="1">
          <mxGeometry width="160" relative="1" as="geometry">
            <mxPoint x="200" y="360" as="sourcePoint" />
            <mxPoint x="200" y="203" as="targetPoint" />
          </mxGeometry>
        </mxCell>
        <mxCell id="zkfFHV4jXpPFQw0GAbJ--16" value="" style="endArrow=block;endSize=10;endFill=0;shadow=0;strokeWidth=1;rounded=0;edgeStyle=elbowEdgeStyle;elbow=vertical;fillColor=#dae8fc;strokeColor=#6c8ebf;" parent="WIyWlLk6GJQsqaUBKTNV-1" target="zkfFHV4jXpPFQw0GAbJ--0" edge="1">
          <mxGeometry width="160" relative="1" as="geometry">
            <mxPoint x="490" y="360" as="sourcePoint" />
            <mxPoint x="310" y="271" as="targetPoint" />
          </mxGeometry>
        </mxCell>
        <mxCell id="P0JvdV1N4cDquriiBA_0-60" style="edgeStyle=orthogonalEdgeStyle;rounded=0;orthogonalLoop=1;jettySize=auto;html=1;dashed=1;dashPattern=12 12;" edge="1" parent="WIyWlLk6GJQsqaUBKTNV-1" source="mIpQJgT3JSUR18SO07oH-1" target="P0JvdV1N4cDquriiBA_0-57">
          <mxGeometry relative="1" as="geometry" />
        </mxCell>
        <mxCell id="mIpQJgT3JSUR18SO07oH-1" value="SimpleWeb" style="swimlane;fontStyle=0;align=center;verticalAlign=top;childLayout=stackLayout;horizontal=1;startSize=26;horizontalStack=0;resizeParent=1;resizeLast=0;collapsible=1;marginBottom=0;rounded=0;shadow=0;strokeWidth=1;fillColor=#dae8fc;strokeColor=#6c8ebf;" parent="WIyWlLk6GJQsqaUBKTNV-1" vertex="1">
          <mxGeometry x="80" y="360" width="240" height="170" as="geometry">
            <mxRectangle x="230" y="140" width="160" height="26" as="alternateBounds" />
          </mxGeometry>
        </mxCell>
        <mxCell id="mIpQJgT3JSUR18SO07oH-2" value="+ site: str&#xa;+ bs_parser: str&#xa;+ encoding: str&#xa;+ random_sleep: bool" style="text;align=left;verticalAlign=top;spacingLeft=4;spacingRight=4;overflow=hidden;rotatable=0;points=[[0,0.5],[1,0.5]];portConstraint=eastwest;" parent="mIpQJgT3JSUR18SO07oH-1" vertex="1">
          <mxGeometry y="26" width="240" height="64" as="geometry" />
        </mxCell>
        <mxCell id="mIpQJgT3JSUR18SO07oH-3" value="" style="line;html=1;strokeWidth=1;align=left;verticalAlign=middle;spacingTop=-1;spacingLeft=3;spacingRight=3;rotatable=0;labelPosition=right;points=[];portConstraint=eastwest;" parent="mIpQJgT3JSUR18SO07oH-1" vertex="1">
          <mxGeometry y="90" width="240" height="8" as="geometry" />
        </mxCell>
        <mxCell id="mIpQJgT3JSUR18SO07oH-4" value="+ get_page_status(url: str): int&#xa;+ get_page_text(url: str): str&#xa;- _get_page(url: str): Response&#xa;&#xa;" style="text;align=left;verticalAlign=top;spacingLeft=4;spacingRight=4;overflow=hidden;rotatable=0;points=[[0,0.5],[1,0.5]];portConstraint=eastwest;fontStyle=0" parent="mIpQJgT3JSUR18SO07oH-1" vertex="1">
          <mxGeometry y="98" width="240" height="52" as="geometry" />
        </mxCell>
        <mxCell id="P0JvdV1N4cDquriiBA_0-58" style="edgeStyle=orthogonalEdgeStyle;rounded=0;orthogonalLoop=1;jettySize=auto;html=1;dashed=1;dashPattern=12 12;" edge="1" parent="WIyWlLk6GJQsqaUBKTNV-1" source="mIpQJgT3JSUR18SO07oH-6" target="P0JvdV1N4cDquriiBA_0-57">
          <mxGeometry relative="1" as="geometry" />
        </mxCell>
        <mxCell id="mIpQJgT3JSUR18SO07oH-6" value="WebWithCache" style="swimlane;fontStyle=0;align=center;verticalAlign=top;childLayout=stackLayout;horizontal=1;startSize=26;horizontalStack=0;resizeParent=1;resizeLast=0;collapsible=1;marginBottom=0;rounded=0;shadow=0;strokeWidth=1;fillColor=#dae8fc;strokeColor=#6c8ebf;" parent="WIyWlLk6GJQsqaUBKTNV-1" vertex="1">
          <mxGeometry x="370" y="360" width="290" height="230" as="geometry">
            <mxRectangle x="230" y="140" width="160" height="26" as="alternateBounds" />
          </mxGeometry>
        </mxCell>
        <mxCell id="mIpQJgT3JSUR18SO07oH-7" value="+ site: str&#xa;+ bs_parser: str&#xa;+ encoding: str&#xa;+ default_file_name: str&#xa;+ default_file_extension: str&#xa;+ folder: str&#xa;+ random_sleep: bool" style="text;align=left;verticalAlign=top;spacingLeft=4;spacingRight=4;overflow=hidden;rotatable=0;points=[[0,0.5],[1,0.5]];portConstraint=eastwest;" parent="mIpQJgT3JSUR18SO07oH-6" vertex="1">
          <mxGeometry y="26" width="290" height="114" as="geometry" />
        </mxCell>
        <mxCell id="mIpQJgT3JSUR18SO07oH-8" value="" style="line;html=1;strokeWidth=1;align=left;verticalAlign=middle;spacingTop=-1;spacingLeft=3;spacingRight=3;rotatable=0;labelPosition=right;points=[];portConstraint=eastwest;" parent="mIpQJgT3JSUR18SO07oH-6" vertex="1">
          <mxGeometry y="140" width="290" height="8" as="geometry" />
        </mxCell>
        <mxCell id="mIpQJgT3JSUR18SO07oH-9" value="+ get_page_status(url: str): int&#xa;+ get_page_text(url: str): str&#xa;- _get_page(url: str): Response&#xa;- _parse_url_in_filepath_and_filename(url: str): List&#xa;- _create_file(url: str, text: url): None &#xa;" style="text;align=left;verticalAlign=top;spacingLeft=4;spacingRight=4;overflow=hidden;rotatable=0;points=[[0,0.5],[1,0.5]];portConstraint=eastwest;fontStyle=0" parent="mIpQJgT3JSUR18SO07oH-6" vertex="1">
          <mxGeometry y="148" width="290" height="82" as="geometry" />
        </mxCell>
        <mxCell id="mIpQJgT3JSUR18SO07oH-19" value="Reader" style="swimlane;fontStyle=0;align=center;verticalAlign=top;childLayout=stackLayout;horizontal=1;startSize=26;horizontalStack=0;resizeParent=1;resizeLast=0;collapsible=1;marginBottom=0;rounded=0;shadow=0;strokeWidth=1;fillColor=#f8cecc;strokeColor=#b85450;" parent="WIyWlLk6GJQsqaUBKTNV-1" vertex="1">
          <mxGeometry x="730" y="-320" width="310" height="420" as="geometry">
            <mxRectangle x="230" y="140" width="160" height="26" as="alternateBounds" />
          </mxGeometry>
        </mxCell>
        <mxCell id="mIpQJgT3JSUR18SO07oH-20" value="+  login: str&#xa;+ id : int&#xa;&#xa;+ web_connection: WebConnection&#xa;+ db_connection: DBConnection&#xa;+ export : Export&#xa;+ parser_html: Class&#xa;+ parser_db : Class&#xa;+ parser_xlsx : Class&#xa;" style="text;align=left;verticalAlign=top;spacingLeft=4;spacingRight=4;overflow=hidden;rotatable=0;points=[[0,0.5],[1,0.5]];portConstraint=eastwest;fontStyle=0" parent="mIpQJgT3JSUR18SO07oH-19" vertex="1">
          <mxGeometry y="26" width="310" height="144" as="geometry" />
        </mxCell>
        <mxCell id="mIpQJgT3JSUR18SO07oH-21" value="" style="line;html=1;strokeWidth=1;align=left;verticalAlign=middle;spacingTop=-1;spacingLeft=3;spacingRight=3;rotatable=0;labelPosition=right;points=[];portConstraint=eastwest;" parent="mIpQJgT3JSUR18SO07oH-19" vertex="1">
          <mxGeometry y="170" width="310" height="8" as="geometry" />
        </mxCell>
        <mxCell id="mIpQJgT3JSUR18SO07oH-22" value="+ prefix : str&#xa;+ all_books_page : str&#xa;+ exists : bool&#xa;+ has_db_entries : str&#xa;+ register()&#xa;+ get_read_books_from_web() : list | bool&#xa;+ get_read_books_from_db()&#xa;+ update_books()&#xa;+ create_export_xlsx_file&#xa;+ fill_update_time() : str&#xa;+ get_update_time() : str | None&#xa;+ delete_read_books()&#xa;- _get_db_id() : int | None&#xa;- _insert_into_db() : int&#xa;- _get_read_books_from_page (url : str) : list | bool&#xa;- _save_read_books_in_db( books : list) : int | None&#xa; " style="text;align=left;verticalAlign=top;spacingLeft=4;spacingRight=4;overflow=hidden;rotatable=0;points=[[0,0.5],[1,0.5]];portConstraint=eastwest;fontStyle=0" parent="mIpQJgT3JSUR18SO07oH-19" vertex="1">
          <mxGeometry y="178" width="310" height="242" as="geometry" />
        </mxCell>
        <mxCell id="mIpQJgT3JSUR18SO07oH-25" value="" style="endArrow=diamondThin;endFill=0;endSize=24;html=1;rounded=0;exitX=0.5;exitY=0;exitDx=0;exitDy=0;entryX=-0.006;entryY=0.374;entryDx=0;entryDy=0;entryPerimeter=0;fillColor=#dae8fc;strokeColor=#6c8ebf;" parent="WIyWlLk6GJQsqaUBKTNV-1" source="zkfFHV4jXpPFQw0GAbJ--0" target="mIpQJgT3JSUR18SO07oH-20" edge="1">
          <mxGeometry width="160" relative="1" as="geometry">
            <mxPoint x="240" y="-60" as="sourcePoint" />
            <mxPoint x="710" y="-90" as="targetPoint" />
            <Array as="points">
              <mxPoint x="350" y="-240" />
            </Array>
          </mxGeometry>
        </mxCell>
        <mxCell id="P0JvdV1N4cDquriiBA_0-133" style="edgeStyle=orthogonalEdgeStyle;shape=connector;rounded=0;orthogonalLoop=1;jettySize=auto;html=1;entryX=0.138;entryY=1;entryDx=0;entryDy=0;entryPerimeter=0;labelBackgroundColor=default;strokeColor=#82b366;fontFamily=Helvetica;fontSize=11;fontColor=default;endArrow=diamondThin;endFill=0;endSize=16;fillColor=#d5e8d4;" edge="1" parent="WIyWlLk6GJQsqaUBKTNV-1" source="P0JvdV1N4cDquriiBA_0-36" target="P0JvdV1N4cDquriiBA_0-57">
          <mxGeometry relative="1" as="geometry" />
        </mxCell>
        <mxCell id="P0JvdV1N4cDquriiBA_0-36" value="WebConnectionConfig" style="swimlane;fontStyle=0;align=center;verticalAlign=top;childLayout=stackLayout;horizontal=1;startSize=40;horizontalStack=0;resizeParent=1;resizeLast=0;collapsible=1;marginBottom=0;rounded=0;shadow=0;strokeWidth=1;fillColor=#d5e8d4;strokeColor=#82b366;" vertex="1" parent="WIyWlLk6GJQsqaUBKTNV-1">
          <mxGeometry x="590" y="850" width="130" height="100" as="geometry">
            <mxRectangle x="230" y="140" width="160" height="26" as="alternateBounds" />
          </mxGeometry>
        </mxCell>
        <mxCell id="P0JvdV1N4cDquriiBA_0-37" value="" style="line;html=1;strokeWidth=1;align=left;verticalAlign=middle;spacingTop=-1;spacingLeft=3;spacingRight=3;rotatable=0;labelPosition=right;points=[];portConstraint=eastwest;fillColor=#d5e8d4;strokeColor=#82b366;" vertex="1" parent="P0JvdV1N4cDquriiBA_0-36">
          <mxGeometry y="40" width="130" height="8" as="geometry" />
        </mxCell>
        <mxCell id="P0JvdV1N4cDquriiBA_0-38" value="+ site : str&#xa;+ cache_folder : str" style="text;align=left;verticalAlign=top;spacingLeft=4;spacingRight=4;overflow=hidden;rotatable=0;points=[[0,0.5],[1,0.5]];portConstraint=eastwest;fontStyle=0;" vertex="1" parent="P0JvdV1N4cDquriiBA_0-36">
          <mxGeometry y="48" width="130" height="42" as="geometry" />
        </mxCell>
        <mxCell id="P0JvdV1N4cDquriiBA_0-132" style="edgeStyle=orthogonalEdgeStyle;shape=connector;rounded=0;orthogonalLoop=1;jettySize=auto;html=1;entryX=0.438;entryY=1;entryDx=0;entryDy=0;entryPerimeter=0;labelBackgroundColor=default;strokeColor=#82b366;fontFamily=Helvetica;fontSize=11;fontColor=default;endArrow=diamondThin;endFill=0;endSize=16;fillColor=#d5e8d4;" edge="1" parent="WIyWlLk6GJQsqaUBKTNV-1" source="P0JvdV1N4cDquriiBA_0-44" target="P0JvdV1N4cDquriiBA_0-57">
          <mxGeometry relative="1" as="geometry" />
        </mxCell>
        <mxCell id="P0JvdV1N4cDquriiBA_0-44" value="DBConfig" style="swimlane;fontStyle=0;align=center;verticalAlign=top;childLayout=stackLayout;horizontal=1;startSize=40;horizontalStack=0;resizeParent=1;resizeLast=0;collapsible=1;marginBottom=0;rounded=0;shadow=0;strokeWidth=1;fillColor=#d5e8d4;strokeColor=#82b366;" vertex="1" parent="WIyWlLk6GJQsqaUBKTNV-1">
          <mxGeometry x="770" y="850" width="130" height="100" as="geometry">
            <mxRectangle x="230" y="140" width="160" height="26" as="alternateBounds" />
          </mxGeometry>
        </mxCell>
        <mxCell id="P0JvdV1N4cDquriiBA_0-45" value="" style="line;html=1;strokeWidth=1;align=left;verticalAlign=middle;spacingTop=-1;spacingLeft=3;spacingRight=3;rotatable=0;labelPosition=right;points=[];portConstraint=eastwest;fillColor=#d5e8d4;strokeColor=#82b366;" vertex="1" parent="P0JvdV1N4cDquriiBA_0-44">
          <mxGeometry y="40" width="130" height="8" as="geometry" />
        </mxCell>
        <mxCell id="P0JvdV1N4cDquriiBA_0-46" value="+ sqlite_db" style="text;align=left;verticalAlign=top;spacingLeft=4;spacingRight=4;overflow=hidden;rotatable=0;points=[[0,0.5],[1,0.5]];portConstraint=eastwest;fontStyle=0;" vertex="1" parent="P0JvdV1N4cDquriiBA_0-44">
          <mxGeometry y="48" width="130" height="42" as="geometry" />
        </mxCell>
        <mxCell id="P0JvdV1N4cDquriiBA_0-137" style="edgeStyle=orthogonalEdgeStyle;shape=connector;rounded=0;orthogonalLoop=1;jettySize=auto;html=1;entryX=0.5;entryY=1;entryDx=0;entryDy=0;entryPerimeter=0;labelBackgroundColor=default;strokeColor=#82b366;fontFamily=Helvetica;fontSize=11;fontColor=default;endArrow=block;endFill=0;endSize=16;fillColor=#d5e8d4;" edge="1" parent="WIyWlLk6GJQsqaUBKTNV-1" source="P0JvdV1N4cDquriiBA_0-48" target="P0JvdV1N4cDquriiBA_0-54">
          <mxGeometry relative="1" as="geometry" />
        </mxCell>
        <mxCell id="P0JvdV1N4cDquriiBA_0-48" value="XLSXConfig" style="swimlane;fontStyle=0;align=center;verticalAlign=top;childLayout=stackLayout;horizontal=1;startSize=40;horizontalStack=0;resizeParent=1;resizeLast=0;collapsible=1;marginBottom=0;rounded=0;shadow=0;strokeWidth=1;fillColor=#d5e8d4;strokeColor=#82b366;" vertex="1" parent="WIyWlLk6GJQsqaUBKTNV-1">
          <mxGeometry x="950" y="980" width="130" height="90" as="geometry">
            <mxRectangle x="230" y="140" width="160" height="26" as="alternateBounds" />
          </mxGeometry>
        </mxCell>
        <mxCell id="P0JvdV1N4cDquriiBA_0-49" value="" style="line;html=1;strokeWidth=1;align=left;verticalAlign=middle;spacingTop=-1;spacingLeft=3;spacingRight=3;rotatable=0;labelPosition=right;points=[];portConstraint=eastwest;fillColor=#d5e8d4;strokeColor=#82b366;" vertex="1" parent="P0JvdV1N4cDquriiBA_0-48">
          <mxGeometry y="40" width="130" height="8" as="geometry" />
        </mxCell>
        <mxCell id="P0JvdV1N4cDquriiBA_0-50" value="+ folder" style="text;align=left;verticalAlign=top;spacingLeft=4;spacingRight=4;overflow=hidden;rotatable=0;points=[[0,0.5],[1,0.5]];portConstraint=eastwest;fontStyle=0;" vertex="1" parent="P0JvdV1N4cDquriiBA_0-48">
          <mxGeometry y="48" width="130" height="42" as="geometry" />
        </mxCell>
        <mxCell id="P0JvdV1N4cDquriiBA_0-134" style="edgeStyle=orthogonalEdgeStyle;shape=connector;rounded=0;orthogonalLoop=1;jettySize=auto;html=1;entryX=0.769;entryY=1;entryDx=0;entryDy=0;entryPerimeter=0;labelBackgroundColor=default;strokeColor=#82b366;fontFamily=Helvetica;fontSize=11;fontColor=default;endArrow=diamondThin;endFill=0;endSize=16;fillColor=#d5e8d4;" edge="1" parent="WIyWlLk6GJQsqaUBKTNV-1" source="P0JvdV1N4cDquriiBA_0-52" target="P0JvdV1N4cDquriiBA_0-57">
          <mxGeometry relative="1" as="geometry" />
        </mxCell>
        <mxCell id="P0JvdV1N4cDquriiBA_0-52" value="ExportConfig" style="swimlane;fontStyle=0;align=center;verticalAlign=top;childLayout=stackLayout;horizontal=1;startSize=40;horizontalStack=0;resizeParent=1;resizeLast=0;collapsible=1;marginBottom=0;rounded=0;shadow=0;strokeWidth=1;fillColor=#d5e8d4;strokeColor=#82b366;" vertex="1" parent="WIyWlLk6GJQsqaUBKTNV-1">
          <mxGeometry x="950" y="850" width="130" height="90" as="geometry">
            <mxRectangle x="230" y="140" width="160" height="26" as="alternateBounds" />
          </mxGeometry>
        </mxCell>
        <mxCell id="P0JvdV1N4cDquriiBA_0-53" value="" style="line;html=1;strokeWidth=1;align=left;verticalAlign=middle;spacingTop=-1;spacingLeft=3;spacingRight=3;rotatable=0;labelPosition=right;points=[];portConstraint=eastwest;fillColor=#d5e8d4;strokeColor=#82b366;" vertex="1" parent="P0JvdV1N4cDquriiBA_0-52">
          <mxGeometry y="40" width="130" height="8" as="geometry" />
        </mxCell>
        <mxCell id="P0JvdV1N4cDquriiBA_0-54" value="+ xlsx : XLSXConfig" style="text;align=left;verticalAlign=top;spacingLeft=4;spacingRight=4;overflow=hidden;rotatable=0;points=[[0,0.5],[1,0.5]];portConstraint=eastwest;fontStyle=0;" vertex="1" parent="P0JvdV1N4cDquriiBA_0-52">
          <mxGeometry y="48" width="130" height="42" as="geometry" />
        </mxCell>
        <mxCell id="P0JvdV1N4cDquriiBA_0-55" value="Config" style="swimlane;fontStyle=0;align=center;verticalAlign=top;childLayout=stackLayout;horizontal=1;startSize=40;horizontalStack=0;resizeParent=1;resizeLast=0;collapsible=1;marginBottom=0;rounded=0;shadow=0;strokeWidth=1;fillColor=#d5e8d4;strokeColor=#82b366;" vertex="1" parent="WIyWlLk6GJQsqaUBKTNV-1">
          <mxGeometry x="730" y="640" width="240" height="150" as="geometry">
            <mxRectangle x="230" y="140" width="160" height="26" as="alternateBounds" />
          </mxGeometry>
        </mxCell>
        <mxCell id="P0JvdV1N4cDquriiBA_0-56" value="" style="line;html=1;strokeWidth=1;align=left;verticalAlign=middle;spacingTop=-1;spacingLeft=3;spacingRight=3;rotatable=0;labelPosition=right;points=[];portConstraint=eastwest;fillColor=#d5e8d4;strokeColor=#82b366;" vertex="1" parent="P0JvdV1N4cDquriiBA_0-55">
          <mxGeometry y="40" width="240" height="8" as="geometry" />
        </mxCell>
        <mxCell id="P0JvdV1N4cDquriiBA_0-57" value="+ encoding : str&#xa;+ web_connection : WebConnectionConfig&#xa;+ db : DBConfig&#xa;+ export : ExportConfig" style="text;align=left;verticalAlign=top;spacingLeft=4;spacingRight=4;overflow=hidden;rotatable=0;points=[[0,0.5],[1,0.5]];portConstraint=eastwest;fontStyle=0;" vertex="1" parent="P0JvdV1N4cDquriiBA_0-55">
          <mxGeometry y="48" width="240" height="102" as="geometry" />
        </mxCell>
        <mxCell id="P0JvdV1N4cDquriiBA_0-118" style="edgeStyle=orthogonalEdgeStyle;rounded=0;orthogonalLoop=1;jettySize=auto;html=1;entryX=0.005;entryY=0.93;entryDx=0;entryDy=0;entryPerimeter=0;endArrow=diamondThin;endFill=0;endSize=24;fillColor=#dae8fc;strokeColor=#6c8ebf;" edge="1" parent="WIyWlLk6GJQsqaUBKTNV-1" source="P0JvdV1N4cDquriiBA_0-64" target="mIpQJgT3JSUR18SO07oH-20">
          <mxGeometry relative="1" as="geometry">
            <Array as="points">
              <mxPoint x="590" y="185" />
              <mxPoint x="590" y="-160" />
            </Array>
          </mxGeometry>
        </mxCell>
        <mxCell id="P0JvdV1N4cDquriiBA_0-64" value="DBConnection" style="swimlane;fontStyle=2;align=center;verticalAlign=top;childLayout=stackLayout;horizontal=1;startSize=26;horizontalStack=0;resizeParent=1;resizeLast=0;collapsible=1;marginBottom=0;rounded=0;shadow=0;strokeWidth=1;fillColor=#dae8fc;strokeColor=#6c8ebf;" vertex="1" parent="WIyWlLk6GJQsqaUBKTNV-1">
          <mxGeometry x="670" y="120" width="330" height="130" as="geometry">
            <mxRectangle x="230" y="140" width="160" height="26" as="alternateBounds" />
          </mxGeometry>
        </mxCell>
        <mxCell id="P0JvdV1N4cDquriiBA_0-66" value="" style="line;html=1;strokeWidth=1;align=left;verticalAlign=middle;spacingTop=-1;spacingLeft=3;spacingRight=3;rotatable=0;labelPosition=right;points=[];portConstraint=eastwest;" vertex="1" parent="P0JvdV1N4cDquriiBA_0-64">
          <mxGeometry y="26" width="330" height="8" as="geometry" />
        </mxCell>
        <mxCell id="P0JvdV1N4cDquriiBA_0-68" value="+ create_db(formatter : DataFormatter)&#xa;+ run_single_sql(sql : str, params : Iterable) : list | None&#xa;+ insert_values(table : str, values : list[dict]) : int | None&#xa;+ table_exists (table : str) : bool&#xa;+ get_table_schema(yable : str) : str | None" style="text;align=left;verticalAlign=top;spacingLeft=4;spacingRight=4;overflow=hidden;rotatable=0;points=[[0,0.5],[1,0.5]];portConstraint=eastwest;fontStyle=2" vertex="1" parent="P0JvdV1N4cDquriiBA_0-64">
          <mxGeometry y="34" width="330" height="96" as="geometry" />
        </mxCell>
        <mxCell id="P0JvdV1N4cDquriiBA_0-80" style="edgeStyle=orthogonalEdgeStyle;rounded=0;orthogonalLoop=1;jettySize=auto;html=1;entryX=0.482;entryY=1.007;entryDx=0;entryDy=0;entryPerimeter=0;exitX=0.481;exitY=0.001;exitDx=0;exitDy=0;exitPerimeter=0;endArrow=block;endFill=0;endSize=16;fillColor=#dae8fc;strokeColor=#6c8ebf;" edge="1" parent="WIyWlLk6GJQsqaUBKTNV-1" source="P0JvdV1N4cDquriiBA_0-72" target="P0JvdV1N4cDquriiBA_0-68">
          <mxGeometry relative="1" as="geometry" />
        </mxCell>
        <mxCell id="P0JvdV1N4cDquriiBA_0-81" style="edgeStyle=orthogonalEdgeStyle;rounded=0;orthogonalLoop=1;jettySize=auto;html=1;entryX=0.435;entryY=-0.009;entryDx=0;entryDy=0;entryPerimeter=0;dashed=1;dashPattern=12 12;" edge="1" parent="WIyWlLk6GJQsqaUBKTNV-1" source="P0JvdV1N4cDquriiBA_0-72" target="P0JvdV1N4cDquriiBA_0-55">
          <mxGeometry relative="1" as="geometry" />
        </mxCell>
        <mxCell id="P0JvdV1N4cDquriiBA_0-72" value="SQLite3Connection" style="swimlane;fontStyle=0;align=center;verticalAlign=top;childLayout=stackLayout;horizontal=1;startSize=26;horizontalStack=0;resizeParent=1;resizeLast=0;collapsible=1;marginBottom=0;rounded=0;shadow=0;strokeWidth=1;fillColor=#dae8fc;strokeColor=#6c8ebf;" vertex="1" parent="WIyWlLk6GJQsqaUBKTNV-1">
          <mxGeometry x="670" y="360" width="330" height="200" as="geometry">
            <mxRectangle x="230" y="140" width="160" height="26" as="alternateBounds" />
          </mxGeometry>
        </mxCell>
        <mxCell id="P0JvdV1N4cDquriiBA_0-73" value="table_book : str&#xa;table_reader : str&#xa;table_readbook : str&#xa;filename : str" style="text;align=left;verticalAlign=top;spacingLeft=4;spacingRight=4;overflow=hidden;rotatable=0;points=[[0,0.5],[1,0.5]];portConstraint=eastwest;" vertex="1" parent="P0JvdV1N4cDquriiBA_0-72">
          <mxGeometry y="26" width="330" height="74" as="geometry" />
        </mxCell>
        <mxCell id="P0JvdV1N4cDquriiBA_0-74" value="" style="line;html=1;strokeWidth=1;align=left;verticalAlign=middle;spacingTop=-1;spacingLeft=3;spacingRight=3;rotatable=0;labelPosition=right;points=[];portConstraint=eastwest;" vertex="1" parent="P0JvdV1N4cDquriiBA_0-72">
          <mxGeometry y="100" width="330" height="8" as="geometry" />
        </mxCell>
        <mxCell id="P0JvdV1N4cDquriiBA_0-75" value="+ create_db(formatter : DataFormatter)&#xa;+ run_single_sql(sql : str, params : Iterable) : list | None&#xa;+ insert_values(table : str, values : list[dict]) : int | None&#xa;+ table_exists (table : str) : bool&#xa;+ get_table_schema(table : str) : str | None" style="text;align=left;verticalAlign=top;spacingLeft=4;spacingRight=4;overflow=hidden;rotatable=0;points=[[0,0.5],[1,0.5]];portConstraint=eastwest;fontStyle=0" vertex="1" parent="P0JvdV1N4cDquriiBA_0-72">
          <mxGeometry y="108" width="330" height="92" as="geometry" />
        </mxCell>
        <mxCell id="P0JvdV1N4cDquriiBA_0-115" style="edgeStyle=orthogonalEdgeStyle;rounded=0;orthogonalLoop=1;jettySize=auto;html=1;endSize=24;endArrow=diamondThin;endFill=0;fillColor=#dae8fc;strokeColor=#6c8ebf;" edge="1" parent="WIyWlLk6GJQsqaUBKTNV-1" source="P0JvdV1N4cDquriiBA_0-85" target="mIpQJgT3JSUR18SO07oH-20">
          <mxGeometry relative="1" as="geometry" />
        </mxCell>
        <mxCell id="P0JvdV1N4cDquriiBA_0-85" value="Export" style="swimlane;fontStyle=2;align=center;verticalAlign=top;childLayout=stackLayout;horizontal=1;startSize=26;horizontalStack=0;resizeParent=1;resizeLast=0;collapsible=1;marginBottom=0;rounded=0;shadow=0;strokeWidth=1;fillColor=#dae8fc;strokeColor=#6c8ebf;" vertex="1" parent="WIyWlLk6GJQsqaUBKTNV-1">
          <mxGeometry x="1070" y="120" width="260" height="140" as="geometry">
            <mxRectangle x="230" y="140" width="160" height="26" as="alternateBounds" />
          </mxGeometry>
        </mxCell>
        <mxCell id="P0JvdV1N4cDquriiBA_0-86" value="+ folder : str&#xa;+ encoding : str" style="text;align=left;verticalAlign=top;spacingLeft=4;spacingRight=4;overflow=hidden;rotatable=0;points=[[0,0.5],[1,0.5]];portConstraint=eastwest;fontStyle=2" vertex="1" parent="P0JvdV1N4cDquriiBA_0-85">
          <mxGeometry y="26" width="260" height="54" as="geometry" />
        </mxCell>
        <mxCell id="P0JvdV1N4cDquriiBA_0-87" value="" style="line;html=1;strokeWidth=1;align=left;verticalAlign=middle;spacingTop=-1;spacingLeft=3;spacingRight=3;rotatable=0;labelPosition=right;points=[];portConstraint=eastwest;" vertex="1" parent="P0JvdV1N4cDquriiBA_0-85">
          <mxGeometry y="80" width="260" height="8" as="geometry" />
        </mxCell>
        <mxCell id="P0JvdV1N4cDquriiBA_0-89" value="+ create_file(books : list, parser: Parser) : str | None" style="text;align=left;verticalAlign=top;spacingLeft=4;spacingRight=4;overflow=hidden;rotatable=0;points=[[0,0.5],[1,0.5]];portConstraint=eastwest;fontStyle=2" vertex="1" parent="P0JvdV1N4cDquriiBA_0-85">
          <mxGeometry y="88" width="260" height="52" as="geometry" />
        </mxCell>
        <mxCell id="P0JvdV1N4cDquriiBA_0-94" style="edgeStyle=orthogonalEdgeStyle;rounded=0;orthogonalLoop=1;jettySize=auto;html=1;entryX=0.498;entryY=0.988;entryDx=0;entryDy=0;entryPerimeter=0;endArrow=block;endFill=0;endSize=16;fillColor=#dae8fc;strokeColor=#6c8ebf;" edge="1" parent="WIyWlLk6GJQsqaUBKTNV-1" source="P0JvdV1N4cDquriiBA_0-90" target="P0JvdV1N4cDquriiBA_0-89">
          <mxGeometry relative="1" as="geometry" />
        </mxCell>
        <mxCell id="P0JvdV1N4cDquriiBA_0-95" style="edgeStyle=orthogonalEdgeStyle;rounded=0;orthogonalLoop=1;jettySize=auto;html=1;entryX=1;entryY=0.5;entryDx=0;entryDy=0;dashed=1;dashPattern=12 12;" edge="1" parent="WIyWlLk6GJQsqaUBKTNV-1" source="P0JvdV1N4cDquriiBA_0-90" target="P0JvdV1N4cDquriiBA_0-57">
          <mxGeometry relative="1" as="geometry" />
        </mxCell>
        <mxCell id="P0JvdV1N4cDquriiBA_0-90" value="XLSXExport" style="swimlane;fontStyle=2;align=center;verticalAlign=top;childLayout=stackLayout;horizontal=1;startSize=26;horizontalStack=0;resizeParent=1;resizeLast=0;collapsible=1;marginBottom=0;rounded=0;shadow=0;strokeWidth=1;fillColor=#dae8fc;strokeColor=#6c8ebf;" vertex="1" parent="WIyWlLk6GJQsqaUBKTNV-1">
          <mxGeometry x="1025" y="360" width="350" height="140" as="geometry">
            <mxRectangle x="230" y="140" width="160" height="26" as="alternateBounds" />
          </mxGeometry>
        </mxCell>
        <mxCell id="P0JvdV1N4cDquriiBA_0-91" value="+ folder : str&#xa;+ encoding : str" style="text;align=left;verticalAlign=top;spacingLeft=4;spacingRight=4;overflow=hidden;rotatable=0;points=[[0,0.5],[1,0.5]];portConstraint=eastwest;fontStyle=0" vertex="1" parent="P0JvdV1N4cDquriiBA_0-90">
          <mxGeometry y="26" width="350" height="54" as="geometry" />
        </mxCell>
        <mxCell id="P0JvdV1N4cDquriiBA_0-92" value="" style="line;html=1;strokeWidth=1;align=left;verticalAlign=middle;spacingTop=-1;spacingLeft=3;spacingRight=3;rotatable=0;labelPosition=right;points=[];portConstraint=eastwest;" vertex="1" parent="P0JvdV1N4cDquriiBA_0-90">
          <mxGeometry y="80" width="350" height="8" as="geometry" />
        </mxCell>
        <mxCell id="P0JvdV1N4cDquriiBA_0-93" value="+ create_file(books : list, login : str, parser: Parser) : str | None&#xa;- _create_filename(login : str) : str" style="text;align=left;verticalAlign=top;spacingLeft=4;spacingRight=4;overflow=hidden;rotatable=0;points=[[0,0.5],[1,0.5]];portConstraint=eastwest;fontStyle=0" vertex="1" parent="P0JvdV1N4cDquriiBA_0-90">
          <mxGeometry y="88" width="350" height="52" as="geometry" />
        </mxCell>
        <mxCell id="P0JvdV1N4cDquriiBA_0-96" value="&lt;&lt;utility&gt;&gt;&#xa;Parser" style="swimlane;fontStyle=0;align=center;verticalAlign=top;childLayout=stackLayout;horizontal=1;startSize=40;horizontalStack=0;resizeParent=1;resizeLast=0;collapsible=1;marginBottom=0;rounded=0;shadow=0;strokeWidth=1;fillColor=#fff2cc;strokeColor=#d6b656;" vertex="1" parent="WIyWlLk6GJQsqaUBKTNV-1">
          <mxGeometry x="710" y="-730" width="280" height="120" as="geometry">
            <mxRectangle x="230" y="140" width="160" height="26" as="alternateBounds" />
          </mxGeometry>
        </mxCell>
        <mxCell id="P0JvdV1N4cDquriiBA_0-97" value="" style="line;html=1;strokeWidth=1;align=left;verticalAlign=middle;spacingTop=-1;spacingLeft=3;spacingRight=3;rotatable=0;labelPosition=right;points=[];portConstraint=eastwest;" vertex="1" parent="P0JvdV1N4cDquriiBA_0-96">
          <mxGeometry y="40" width="280" height="8" as="geometry" />
        </mxCell>
        <mxCell id="P0JvdV1N4cDquriiBA_0-98" value="- _clear_name (str) : str" style="text;align=left;verticalAlign=top;spacingLeft=4;spacingRight=4;overflow=hidden;rotatable=0;points=[[0,0.5],[1,0.5]];portConstraint=eastwest;fontStyle=0" vertex="1" parent="P0JvdV1N4cDquriiBA_0-96">
          <mxGeometry y="48" width="280" height="72" as="geometry" />
        </mxCell>
        <mxCell id="P0JvdV1N4cDquriiBA_0-120" style="edgeStyle=orthogonalEdgeStyle;shape=connector;rounded=0;orthogonalLoop=1;jettySize=auto;html=1;labelBackgroundColor=default;strokeColor=#d6b656;fontFamily=Helvetica;fontSize=11;fontColor=default;endArrow=diamondThin;endFill=0;endSize=24;fillColor=#fff2cc;" edge="1" parent="WIyWlLk6GJQsqaUBKTNV-1" source="P0JvdV1N4cDquriiBA_0-99">
          <mxGeometry relative="1" as="geometry">
            <mxPoint x="849" y="-320" as="targetPoint" />
          </mxGeometry>
        </mxCell>
        <mxCell id="P0JvdV1N4cDquriiBA_0-123" style="edgeStyle=orthogonalEdgeStyle;shape=connector;rounded=0;orthogonalLoop=1;jettySize=auto;html=1;labelBackgroundColor=default;strokeColor=#d6b656;fontFamily=Helvetica;fontSize=11;fontColor=default;endArrow=block;endFill=0;endSize=16;fillColor=#fff2cc;" edge="1" parent="WIyWlLk6GJQsqaUBKTNV-1" source="P0JvdV1N4cDquriiBA_0-99" target="P0JvdV1N4cDquriiBA_0-96">
          <mxGeometry relative="1" as="geometry" />
        </mxCell>
        <mxCell id="P0JvdV1N4cDquriiBA_0-127" style="edgeStyle=orthogonalEdgeStyle;shape=connector;rounded=0;orthogonalLoop=1;jettySize=auto;html=1;entryX=-0.006;entryY=0.794;entryDx=0;entryDy=0;entryPerimeter=0;dashed=1;dashPattern=12 12;labelBackgroundColor=default;strokeColor=default;fontFamily=Helvetica;fontSize=11;fontColor=default;endArrow=blockThin;endFill=1;endSize=16;" edge="1" parent="WIyWlLk6GJQsqaUBKTNV-1" target="P0JvdV1N4cDquriiBA_0-109">
          <mxGeometry relative="1" as="geometry">
            <mxPoint x="665" y="-510" as="sourcePoint" />
          </mxGeometry>
        </mxCell>
        <mxCell id="P0JvdV1N4cDquriiBA_0-99" value="ParserForDb" style="swimlane;fontStyle=0;align=center;verticalAlign=top;childLayout=stackLayout;horizontal=1;startSize=40;horizontalStack=0;resizeParent=1;resizeLast=0;collapsible=1;marginBottom=0;rounded=0;shadow=0;strokeWidth=1;fillColor=#fff2cc;strokeColor=#d6b656;" vertex="1" parent="WIyWlLk6GJQsqaUBKTNV-1">
          <mxGeometry x="637" y="-500" width="426" height="120" as="geometry">
            <mxRectangle x="230" y="140" width="160" height="26" as="alternateBounds" />
          </mxGeometry>
        </mxCell>
        <mxCell id="P0JvdV1N4cDquriiBA_0-100" value="" style="line;html=1;strokeWidth=1;align=left;verticalAlign=middle;spacingTop=-1;spacingLeft=3;spacingRight=3;rotatable=0;labelPosition=right;points=[];portConstraint=eastwest;" vertex="1" parent="P0JvdV1N4cDquriiBA_0-99">
          <mxGeometry y="40" width="426" height="8" as="geometry" />
        </mxCell>
        <mxCell id="P0JvdV1N4cDquriiBA_0-101" value="+ prepare_books_for_db(books : list, formatter : DataFormatter) : list&#xa;- _prepare_book_for_db(book : dict, formatter: DataFormatter) : list" style="text;align=left;verticalAlign=top;spacingLeft=4;spacingRight=4;overflow=hidden;rotatable=0;points=[[0,0.5],[1,0.5]];portConstraint=eastwest;fontStyle=0" vertex="1" parent="P0JvdV1N4cDquriiBA_0-99">
          <mxGeometry y="48" width="426" height="62" as="geometry" />
        </mxCell>
        <mxCell id="P0JvdV1N4cDquriiBA_0-121" style="edgeStyle=orthogonalEdgeStyle;shape=connector;rounded=0;orthogonalLoop=1;jettySize=auto;html=1;entryX=0.997;entryY=0.111;entryDx=0;entryDy=0;entryPerimeter=0;labelBackgroundColor=default;strokeColor=#d6b656;fontFamily=Helvetica;fontSize=11;fontColor=default;endArrow=diamondThin;endFill=0;endSize=24;fillColor=#fff2cc;" edge="1" parent="WIyWlLk6GJQsqaUBKTNV-1" source="P0JvdV1N4cDquriiBA_0-102" target="mIpQJgT3JSUR18SO07oH-20">
          <mxGeometry relative="1" as="geometry" />
        </mxCell>
        <mxCell id="P0JvdV1N4cDquriiBA_0-124" style="edgeStyle=orthogonalEdgeStyle;shape=connector;rounded=0;orthogonalLoop=1;jettySize=auto;html=1;entryX=1;entryY=0.306;entryDx=0;entryDy=0;entryPerimeter=0;labelBackgroundColor=default;strokeColor=#d6b656;fontFamily=Helvetica;fontSize=11;fontColor=default;endArrow=block;endFill=0;endSize=16;fillColor=#fff2cc;" edge="1" parent="WIyWlLk6GJQsqaUBKTNV-1" source="P0JvdV1N4cDquriiBA_0-102" target="P0JvdV1N4cDquriiBA_0-98">
          <mxGeometry relative="1" as="geometry" />
        </mxCell>
        <mxCell id="P0JvdV1N4cDquriiBA_0-126" style="edgeStyle=orthogonalEdgeStyle;shape=connector;rounded=0;orthogonalLoop=1;jettySize=auto;html=1;entryX=1;entryY=0.5;entryDx=0;entryDy=0;dashed=1;dashPattern=12 12;labelBackgroundColor=default;strokeColor=default;fontFamily=Helvetica;fontSize=11;fontColor=default;endArrow=blockThin;endFill=1;endSize=16;exitX=0.583;exitY=-0.02;exitDx=0;exitDy=0;exitPerimeter=0;" edge="1" parent="WIyWlLk6GJQsqaUBKTNV-1" source="P0JvdV1N4cDquriiBA_0-102" target="P0JvdV1N4cDquriiBA_0-109">
          <mxGeometry relative="1" as="geometry" />
        </mxCell>
        <mxCell id="P0JvdV1N4cDquriiBA_0-102" value="ParserForXLSX" style="swimlane;fontStyle=0;align=center;verticalAlign=top;childLayout=stackLayout;horizontal=1;startSize=40;horizontalStack=0;resizeParent=1;resizeLast=0;collapsible=1;marginBottom=0;rounded=0;shadow=0;strokeWidth=1;fillColor=#fff2cc;strokeColor=#d6b656;" vertex="1" parent="WIyWlLk6GJQsqaUBKTNV-1">
          <mxGeometry x="1110" y="-550" width="426" height="170" as="geometry">
            <mxRectangle x="230" y="140" width="160" height="26" as="alternateBounds" />
          </mxGeometry>
        </mxCell>
        <mxCell id="P0JvdV1N4cDquriiBA_0-103" value="" style="line;html=1;strokeWidth=1;align=left;verticalAlign=middle;spacingTop=-1;spacingLeft=3;spacingRight=3;rotatable=0;labelPosition=right;points=[];portConstraint=eastwest;" vertex="1" parent="P0JvdV1N4cDquriiBA_0-102">
          <mxGeometry y="40" width="426" height="8" as="geometry" />
        </mxCell>
        <mxCell id="P0JvdV1N4cDquriiBA_0-104" value="+ prepare_book_for_xlsx(book: dict, formatter: DataFormatter) :list&#xa;+ create_author_link(id : int) : str&#xa;+ create_book_link(id : int) : str&#xa;+ create_author_link(id : int) : str&#xa;+ create_work_link(id : int) : str&#xa;+ create_review_link(id : int) : str&#xa;+ create_review_text(text : str) : str" style="text;align=left;verticalAlign=top;spacingLeft=4;spacingRight=4;overflow=hidden;rotatable=0;points=[[0,0.5],[1,0.5]];portConstraint=eastwest;fontStyle=0" vertex="1" parent="P0JvdV1N4cDquriiBA_0-102">
          <mxGeometry y="48" width="426" height="122" as="geometry" />
        </mxCell>
        <mxCell id="P0JvdV1N4cDquriiBA_0-108" value="BookDataFormatter" style="swimlane;fontStyle=0;align=center;verticalAlign=top;childLayout=stackLayout;horizontal=1;startSize=26;horizontalStack=0;resizeParent=1;resizeLast=0;collapsible=1;marginBottom=0;rounded=0;shadow=0;strokeWidth=1;fillColor=#e1d5e7;strokeColor=#9673a6;" vertex="1" parent="WIyWlLk6GJQsqaUBKTNV-1">
          <mxGeometry x="695" y="-980" width="330" height="200" as="geometry">
            <mxRectangle x="230" y="140" width="160" height="26" as="alternateBounds" />
          </mxGeometry>
        </mxCell>
        <mxCell id="P0JvdV1N4cDquriiBA_0-109" value="+ common : dict&#xa;&#xa;+ all_properties_parser : dict&#xa;+ all_properties_db : dict&#xa;+ all_properties_xlsx : dict&#xa;&#xa;+ book_properties_db : list&#xa;+ readbook_properties_db : list&#xa;+ reader_properties_db : list" style="text;align=left;verticalAlign=top;spacingLeft=4;spacingRight=4;overflow=hidden;rotatable=0;points=[[0,0.5],[1,0.5]];portConstraint=eastwest;" vertex="1" parent="P0JvdV1N4cDquriiBA_0-108">
          <mxGeometry y="26" width="330" height="174" as="geometry" />
        </mxCell>
        <mxCell id="P0JvdV1N4cDquriiBA_0-119" style="edgeStyle=orthogonalEdgeStyle;rounded=0;orthogonalLoop=1;jettySize=auto;html=1;entryX=0.001;entryY=0.044;entryDx=0;entryDy=0;entryPerimeter=0;endArrow=diamondThin;endFill=0;endSize=24;fillColor=#fff2cc;strokeColor=#d6b656;" edge="1" parent="WIyWlLk6GJQsqaUBKTNV-1" source="mIpQJgT3JSUR18SO07oH-10" target="mIpQJgT3JSUR18SO07oH-20">
          <mxGeometry relative="1" as="geometry" />
        </mxCell>
        <mxCell id="P0JvdV1N4cDquriiBA_0-122" style="edgeStyle=orthogonalEdgeStyle;shape=connector;rounded=0;orthogonalLoop=1;jettySize=auto;html=1;entryX=0.004;entryY=0.144;entryDx=0;entryDy=0;entryPerimeter=0;labelBackgroundColor=default;strokeColor=#d6b656;fontFamily=Helvetica;fontSize=11;fontColor=default;endArrow=block;endFill=0;endSize=16;exitX=1;exitY=0.095;exitDx=0;exitDy=0;exitPerimeter=0;fillColor=#fff2cc;" edge="1" parent="WIyWlLk6GJQsqaUBKTNV-1" source="mIpQJgT3JSUR18SO07oH-13" target="P0JvdV1N4cDquriiBA_0-98">
          <mxGeometry relative="1" as="geometry" />
        </mxCell>
        <mxCell id="P0JvdV1N4cDquriiBA_0-125" style="edgeStyle=orthogonalEdgeStyle;shape=connector;rounded=0;orthogonalLoop=1;jettySize=auto;html=1;labelBackgroundColor=default;strokeColor=default;fontFamily=Helvetica;fontSize=11;fontColor=default;endArrow=blockThin;endFill=1;endSize=16;dashed=1;dashPattern=12 12;" edge="1" parent="WIyWlLk6GJQsqaUBKTNV-1" source="mIpQJgT3JSUR18SO07oH-10" target="P0JvdV1N4cDquriiBA_0-109">
          <mxGeometry relative="1" as="geometry" />
        </mxCell>
        <mxCell id="mIpQJgT3JSUR18SO07oH-10" value="ParserFromHTML" style="swimlane;fontStyle=0;align=center;verticalAlign=top;childLayout=stackLayout;horizontal=1;startSize=40;horizontalStack=0;resizeParent=1;resizeLast=0;collapsible=1;marginBottom=0;rounded=0;shadow=0;strokeWidth=1;fillColor=#fff2cc;strokeColor=#d6b656;" parent="WIyWlLk6GJQsqaUBKTNV-1" vertex="1">
          <mxGeometry x="130" y="-750" width="450" height="370" as="geometry">
            <mxRectangle x="230" y="140" width="160" height="26" as="alternateBounds" />
          </mxGeometry>
        </mxCell>
        <mxCell id="mIpQJgT3JSUR18SO07oH-12" value="" style="line;html=1;strokeWidth=1;align=left;verticalAlign=middle;spacingTop=-1;spacingLeft=3;spacingRight=3;rotatable=0;labelPosition=right;points=[];portConstraint=eastwest;" parent="mIpQJgT3JSUR18SO07oH-10" vertex="1">
          <mxGeometry y="40" width="450" height="8" as="geometry" />
        </mxCell>
        <mxCell id="mIpQJgT3JSUR18SO07oH-13" value="+ reader_prefix(login:str):str&#xa;+ reader_read_books_page(login:str): str&#xa;+ reader_read_books_page_by_number(login : str, number : int) :str&#xa;+ check_404(text : BeautifulSoup): bool&#xa;+ check_captcha ( text : bsoup) :bool&#xa;+ all_books_from_page(text: BeautifulSoup, formatter:Data Formatter): list&#xa;+ book ( text: bsoup, formatter: DataFormatter) : list&#xa;&#xa;+ get_author_name(text : bsoup) :str&#xa;+ get_author_id(text : bsoup) : int&#xa;+ get_book_name(text : bsoup) : str&#xa;+ get_book_id(text : bsoup) : int&#xa;+ get_work_id(text : bsoup) : int&#xa;+ get_common_rating(text : bsoup) : float&#xa;+ get_picture_url(text : bsoup) : str&#xa;+ get_reader_rating(text : bsoup) : float&#xa;+ get_tags(text : bsoup) : str&#xa;+ get_review_id(text : bsoup) : int&#xa;+ get_review_text(text : bsoup) : str&#xa;+ get_paginator(text : bsoup) : str : list" style="text;align=left;verticalAlign=top;spacingLeft=4;spacingRight=4;overflow=hidden;rotatable=0;points=[[0,0.5],[1,0.5]];portConstraint=eastwest;fontStyle=0" parent="mIpQJgT3JSUR18SO07oH-10" vertex="1">
          <mxGeometry y="48" width="450" height="312" as="geometry" />
        </mxCell>
      </root>
    </mxGraphModel>
  </diagram>
</mxfile>
